# xmcd
#
# Track frame offsets:
#	150
#	17715
#	34364
#	54054
#	72396
#	92457
#	107102
#	128471
#	149578
#	166685
#
# Disc length: 2522 seconds
#
# Revision: 1
# Processed by: cddbd v1.5.2PL0 Copyright (c) Steve Scherf et al.
# Submitted via: EZCDAudioConverter 8.0.2.1
#
DISCID=7c09d80a
DTITLE=Saka Trương Tuyền - Yêu Đơn Phương, Người Tình Dễ Thương
DYEAR=2011
DGENRE=World Pop
TTITLE0=Saka Trương Tuyền - Chỉ yêu mình em
TTITLE1=Saka Trương Tuyền - Người Tình Dễ Thương
TTITLE2=Saka Trương Tuyền - Yêu Đơn Phương
TTITLE3=Saka Trương Tuyền - Khoảnh khắc yêu
TTITLE4=Saka Trương Tuyền - Người tình đẹp trai
TTITLE5=Saka Trương Tuyền, Lương Gia Huy - Tình yêu trong sáng
TTITLE6=Saka Trương Tuyền - Chuyện tình Saka
TTITLE7=Saka Trương Tuyền - Trang giấy trắng
TTITLE8=Saka Trương Tuyền - Chờ anh trong đêm
TTITLE9=Saka Trương Tuyền, Kim Tiểu Long - Mùa đông xót xa
EXTD=
EXTT0=
EXTT1=
EXTT2=
EXTT3=
EXTT4=
EXTT5=
EXTT6=
EXTT7=
EXTT8=
EXTT9=
PLAYORDER=
